filtEMG_segment_2.mot
version=1
nRows=47
nColumns=4
inDegrees=no
endheader
                Time	                LMEH	                LBIF	                LREF	
          5.56500000	          0.00413156	          0.01143624	          0.01398559	
          5.57000000	          0.00398995	          0.01193589	          0.01277452	
          5.57500000	          0.00380401	          0.01248324	          0.01175211	
          5.58000000	          0.00357947	          0.01305982	          0.01097325	
          5.58500000	          0.00332401	          0.01364566	          0.01048027	
          5.59000000	          0.00304694	          0.01422007	          0.01030097	
          5.59500000	          0.00275884	          0.01476259	          0.01044757	
          5.60000000	          0.00247111	          0.01525409	          0.01091664	
          5.60500000	          0.00219553	          0.01567801	          0.01168964	
          5.61000000	          0.00194379	          0.01602154	          0.01273405	
          5.61500000	          0.00172706	          0.01627678	          0.01400484	
          5.62000000	          0.00155551	          0.01644158	          0.01544615	
          5.62500000	          0.00143787	          0.01652010	          0.01699339	
          5.63000000	          0.00138106	          0.01652291	          0.01857550	
          5.63500000	          0.00138971	          0.01646659	          0.02011783	
          5.64000000	          0.00146593	          0.01637279	          0.02154544	
          5.64500000	          0.00160905	          0.01626678	          0.02278703	
          5.65000000	          0.00181542	          0.01617563	          0.02377933	
          5.65500000	          0.00207848	          0.01612602	          0.02447169	
          5.66000000	          0.00238883	          0.01614192	          0.02483038	
          5.66500000	          0.00273459	          0.01624232	          0.02484214	
          5.67000000	          0.00310176	          0.01643906	          0.02451631	
          5.67500000	          0.00347492	          0.01673522	          0.02388501	
          5.68000000	          0.00383794	          0.01712389	          0.02300107	
          5.68500000	          0.00417479	          0.01758793	          0.02193370	
          5.69000000	          0.00447052	          0.01810035	          0.02076212	
          5.69500000	          0.00471213	          0.01862585	          0.01956788	
          5.70000000	          0.00488943	          0.01912315	          0.01842672	
          5.70500000	          0.00499577	          0.01954814	          0.01740088	
          5.71000000	          0.00502858	          0.01985770	          0.01653294	
          5.71500000	          0.00498961	          0.02001369	          0.01584194	
          5.72000000	          0.00488492	          0.01998693	          0.01532228	
          5.72500000	          0.00472448	          0.01976055	          0.01494557	
          5.73000000	          0.00452156	          0.01933243	          0.01466532	
          5.73500000	          0.00429168	          0.01871632	          0.01442388	
          5.74000000	          0.00405152	          0.01794142	          0.01416091	
          5.74500000	          0.00381761	          0.01705044	          0.01382239	
          5.75000000	          0.00360511	          0.01609616	          0.01336915	
          5.75500000	          0.00342665	          0.01513690	          0.01278390	
          5.76000000	          0.00329145	          0.01423137	          0.01207608	
          5.76500000	          0.00320475	          0.01343332	          0.01128371	
          5.77000000	          0.00316760	          0.01278671	          0.01047221	
          5.77500000	          0.00317702	          0.01232174	          0.00972999	
          5.78000000	          0.00322650	          0.01205234	          0.00916137	
          5.78500000	          0.00330680	          0.01197520	          0.00887725	
          5.79000000	          0.00340694	          0.01207061	          0.00898451	
          5.79500000	          0.00351529	          0.01230473	          0.00957495	
